<?xml version="1.0" standalone="no"?>
<svg width="567.429" height="409.712" viewBox="0 0 567.429 409.712" xmlns="http://www.w3.org/2000/svg" shape-rendering="crispEdges">
<title>
mean_Raw_size_5.svg
</title>
<desc>
Creator: ROOT Version 6.28/04
CreationDate: Fri Aug  8 15:19:05 2025</desc>
<defs>
</defs>
<rect x="0.5" y="0" width="566.929" height="409.212" fill="white"/>
<rect x="57.1929" y="40.9212" width="453.543" height="327.37" fill="white"/>
<rect x="57.1929" y="40.9212" width="453.543" height="327.37" fill="none" stroke="black"/>
<path d="M57.1929,368.291h 453.543" fill="none" stroke="black"/>
<path d="M129.572,361.743v 6.54739" fill="none" stroke="black"/>
<path d="M148.871,365.017v 3.2737" fill="none" stroke="black"/>
<path d="M168.17,365.017v 3.2737" fill="none" stroke="black"/>
<path d="M187.469,365.017v 3.2737" fill="none" stroke="black"/>
<path d="M206.768,361.743v 6.54739" fill="none" stroke="black"/>
<path d="M226.067,365.017v 3.2737" fill="none" stroke="black"/>
<path d="M245.366,365.017v 3.2737" fill="none" stroke="black"/>
<path d="M264.665,365.017v 3.2737" fill="none" stroke="black"/>
<path d="M283.965,361.743v 6.54739" fill="none" stroke="black"/>
<path d="M303.264,365.017v 3.2737" fill="none" stroke="black"/>
<path d="M322.563,365.017v 3.2737" fill="none" stroke="black"/>
<path d="M341.862,365.017v 3.2737" fill="none" stroke="black"/>
<path d="M361.161,361.743v 6.54739" fill="none" stroke="black"/>
<path d="M380.46,365.017v 3.2737" fill="none" stroke="black"/>
<path d="M399.759,365.017v 3.2737" fill="none" stroke="black"/>
<path d="M419.058,365.017v 3.2737" fill="none" stroke="black"/>
<path d="M438.357,361.743v 6.54739" fill="none" stroke="black"/>
<path d="M129.572,361.743v 6.54739" fill="none" stroke="black"/>
<path d="M110.273,365.017v 3.2737" fill="none" stroke="black"/>
<path d="M90.974,365.017v 3.2737" fill="none" stroke="black"/>
<path d="M71.6749,365.017v 3.2737" fill="none" stroke="black"/>
<path d="M438.357,361.743v 6.54739" fill="none" stroke="black"/>
<path d="M457.656,365.017v 3.2737" fill="none" stroke="black"/>
<path d="M476.955,365.017v 3.2737" fill="none" stroke="black"/>
<path d="M496.254,365.017v 3.2737" fill="none" stroke="black"/>
<text xml:space="preserve" x="121.274" y="381.505" fill="black" font-size="13.6398" font-family="Helvetica">40</text>
<text xml:space="preserve" x="198.712" y="381.505" fill="black" font-size="13.6398" font-family="Helvetica">60</text>
<text xml:space="preserve" x="276.15" y="381.505" fill="black" font-size="13.6398" font-family="Helvetica">80</text>
<text xml:space="preserve" x="349.325" y="381.505" fill="black" font-size="13.6398" font-family="Helvetica">100</text>
<text xml:space="preserve" x="426.763" y="381.505" fill="black" font-size="13.6398" font-family="Helvetica">120</text>
<text xml:space="preserve" x="465.837" y="401.397" fill="black" font-size="13.6398" font-family="Helvetica">X-ITHR</text>
<path d="M57.1929,368.291v -327.37" fill="none" stroke="black"/>
<path d="M66.2638,368.291h -9.07087" fill="none" stroke="black"/>
<path d="M61.7283,360.107h -4.53543" fill="none" stroke="black"/>
<path d="M61.7283,351.922h -4.53543" fill="none" stroke="black"/>
<path d="M61.7283,343.738h -4.53543" fill="none" stroke="black"/>
<path d="M66.2638,335.554h -9.07087" fill="none" stroke="black"/>
<path d="M61.7283,327.37h -4.53543" fill="none" stroke="black"/>
<path d="M61.7283,319.185h -4.53543" fill="none" stroke="black"/>
<path d="M61.7283,311.001h -4.53543" fill="none" stroke="black"/>
<path d="M66.2638,302.817h -9.07087" fill="none" stroke="black"/>
<path d="M61.7283,294.633h -4.53543" fill="none" stroke="black"/>
<path d="M61.7283,286.448h -4.53543" fill="none" stroke="black"/>
<path d="M61.7283,278.264h -4.53543" fill="none" stroke="black"/>
<path d="M66.2638,270.08h -9.07087" fill="none" stroke="black"/>
<path d="M61.7283,261.896h -4.53543" fill="none" stroke="black"/>
<path d="M61.7283,253.711h -4.53543" fill="none" stroke="black"/>
<path d="M61.7283,245.527h -4.53543" fill="none" stroke="black"/>
<path d="M66.2638,237.343h -9.07087" fill="none" stroke="black"/>
<path d="M61.7283,229.159h -4.53543" fill="none" stroke="black"/>
<path d="M61.7283,220.974h -4.53543" fill="none" stroke="black"/>
<path d="M61.7283,212.79h -4.53543" fill="none" stroke="black"/>
<path d="M66.2638,204.606h -9.07087" fill="none" stroke="black"/>
<path d="M61.7283,196.422h -4.53543" fill="none" stroke="black"/>
<path d="M61.7283,188.238h -4.53543" fill="none" stroke="black"/>
<path d="M61.7283,180.053h -4.53543" fill="none" stroke="black"/>
<path d="M66.2638,171.869h -9.07087" fill="none" stroke="black"/>
<path d="M61.7283,163.685h -4.53543" fill="none" stroke="black"/>
<path d="M61.7283,155.501h -4.53543" fill="none" stroke="black"/>
<path d="M61.7283,147.316h -4.53543" fill="none" stroke="black"/>
<path d="M66.2638,139.132h -9.07087" fill="none" stroke="black"/>
<path d="M61.7283,130.948h -4.53543" fill="none" stroke="black"/>
<path d="M61.7283,122.764h -4.53543" fill="none" stroke="black"/>
<path d="M61.7283,114.579h -4.53543" fill="none" stroke="black"/>
<path d="M66.2638,106.395h -9.07087" fill="none" stroke="black"/>
<path d="M61.7283,98.2109h -4.53543" fill="none" stroke="black"/>
<path d="M61.7283,90.0266h -4.53543" fill="none" stroke="black"/>
<path d="M61.7283,81.8424h -4.53543" fill="none" stroke="black"/>
<path d="M66.2638,73.6582h -9.07087" fill="none" stroke="black"/>
<path d="M61.7283,65.4739h -4.53543" fill="none" stroke="black"/>
<path d="M61.7283,57.2897h -4.53543" fill="none" stroke="black"/>
<path d="M61.7283,49.1054h -4.53543" fill="none" stroke="black"/>
<path d="M66.2638,40.9212h -9.07087" fill="none" stroke="black"/>
<text xml:space="preserve" x="46.6784" y="372.98" fill="black" font-size="13.6398" font-family="Helvetica">0</text>
<text xml:space="preserve" x="35.3114" y="340.3" fill="black" font-size="13.6398" font-family="Helvetica">0.2</text>
<text xml:space="preserve" x="35.3114" y="307.619" fill="black" font-size="13.6398" font-family="Helvetica">0.4</text>
<text xml:space="preserve" x="35.3114" y="274.939" fill="black" font-size="13.6398" font-family="Helvetica">0.6</text>
<text xml:space="preserve" x="35.3114" y="242.259" fill="black" font-size="13.6398" font-family="Helvetica">0.8</text>
<text xml:space="preserve" x="48.8097" y="210.29" fill="black" font-size="13.6398" font-family="Helvetica">1</text>
<text xml:space="preserve" x="35.3114" y="176.899" fill="black" font-size="13.6398" font-family="Helvetica">1.2</text>
<text xml:space="preserve" x="35.3114" y="144.219" fill="black" font-size="13.6398" font-family="Helvetica">1.4</text>
<text xml:space="preserve" x="35.3114" y="110.828" fill="black" font-size="13.6398" font-family="Helvetica">1.6</text>
<text xml:space="preserve" x="35.3114" y="78.1481" fill="black" font-size="13.6398" font-family="Helvetica">1.8</text>
<text xml:space="preserve" x="46.6784" y="46.1784" fill="black" font-size="13.6398" font-family="Helvetica">2</text>
<g transform="rotate(-90,23.9444,87.3838)">
<text xml:space="preserve" x="23.9444" y="87.3838" fill="black" font-size="13.6398" font-family="Helvetica">Y-mean</text>
</g>
<text xml:space="preserve" x="102.803" y="18.4714" fill="black" font-size="15.8062" font-family="Helvetica">detID=5 measRaws().size() varies with the threshold</text>
<path d="M98.6936,103.612l 123.514, -1.22764l 123.514, 32.4096l 123.514, -32.4914" fill="none" stroke="#ff0000"/>
<g fill="#0000ff">
<circle cx="98.6936" cy="103.612" r="4.26263"/>
<circle cx="222.208" cy="102.385" r="4.26263"/>
<circle cx="345.722" cy="134.794" r="4.26263"/>
<circle cx="469.236" cy="102.303" r="4.26263"/>
</g>
<text xml:space="preserve" x="102.803" y="18.4714" fill="black" font-size="15.8062" font-family="Helvetica">detID=5 measRaws().size() varies with the threshold</text></svg>
