<?xml version="1.0" standalone="no"?>
<svg width="567.429" height="245.181" viewBox="0 0 567.429 245.181" xmlns="http://www.w3.org/2000/svg" shape-rendering="crispEdges">
<title>
residuals_det32_1D_fit.svg
</title>
<desc>
Creator: ROOT Version 6.28/04
CreationDate: Thu Aug 21 18:32:02 2025</desc>
<defs>
</defs>
<rect x="0.5" y="0" width="566.929" height="244.681" fill="white"/>
<rect x="6.16929" y="2.44681" width="272.126" height="239.788" fill="white"/>
<rect x="33.3819" y="26.4256" width="217.701" height="191.83" fill="white"/>
<rect x="33.3819" y="26.4256" width="217.701" height="191.83" fill="none" stroke="black"/>
<path d="M33.3819,218.256h 24.3825v -0.19687h 0.217701v 0.19687h 1.52391v -0.19687h 0.217701v 0.19687h 1.95931v -0.78748h 0.217701v 0.78748h 0.435402v -0.19687h 0.435402v 0.19687h 0.435402v -0.19687h 0.217701v 0.19687h 0.435402v -0.19687h 0.217701v
 0.19687h 0.653102v -0.59061h 0.217701v 0.39374h 0.217701v 0.19687h 0.217701v -0.19687h 0.217701v 0.19687h 0.435402v -0.59061h 0.217701v 0.39374h 0.217701v 0.19687h 0.217701v -0.39374h 0.435402v 0.39374h 0.217701v -0.59061h 0.217701v 0.59061h
 0.870803v -0.19687h 0.217701v 0.19687h 0.870803v -0.19687h 0.217701v 0.19687h 0.217701v -0.39374h 0.217701v 0.39374h 0.870803v -0.19687h 0.435402v 0.19687h 0.435402v -0.19687h 0.435402v 0.19687h 0.217701v -0.19687h 0.217701v 0.19687h 0.217701v
 -0.39374h 0.217701v 0.39374h 0.653102v -0.19687h 0.217701v 0.19687h 0.870803v -0.19687h 0.217701v 0.19687h 0.653102v -0.19687h 0.217701v 0.19687h 0.435402v -0.19687h 0.435402v -0.19687h 0.217701v 0.39374h 0.435402v -0.19687h 0.435402v 0.19687h
 0.217701v -0.19687h 0.435402v 0.19687h 0.217701v -0.39374h 0.217701v 0.39374h 0.435402v -0.19687h 0.435402v -0.39374h 0.217701v 0.39374h 0.217701v 0.19687h 0.653102v -0.39374h 0.217701v 0.19687h 0.435402v 0.19687h 0.435402v -0.39374h 0.217701v
 -0.19687h 0.217701v 0.59061h 0.217701v -0.59061h 0.217701v 0.59061h 0.217701v -0.19687h 0.435402v 0.19687h 0.435402v -0.59061h 0.217701v 0.59061h 0.217701v -0.19687h 0.435402v -0.59061h 0.217701v 0.39374h 0.217701v 0.39374h 0.870803v -0.19687h
 0.435402v 0.19687h 0.217701v -0.39374h 0.217701v 0.39374h 0.653102v -0.39374h 0.217701v 0.19687h 0.217701v 0.19687h 0.435402v -0.19687h 0.217701v 0.19687h 0.217701v -0.19687h 0.217701v 0.19687h 0.217701v -0.19687h 1.95931v 0.19687h 0.435402v
 -0.19687h 0.435402v -0.19687h 0.217701v -0.19687h 0.435402v 0.59061h 0.217701v -0.19687h 0.435402v 0.19687h 0.217701v -0.59061h 0.217701v 0.19687h 0.217701v 0.39374h 0.217701v -0.19687h 0.217701v -0.19687h 0.217701v 0.19687h 0.217701v -0.19687h
 0.217701v 0.19687h 0.435402v 0.19687h 0.217701v -0.19687h 0.217701v -0.19687h 0.217701v 0.19687h 0.217701v -0.19687h 0.217701v 0.19687h 0.435402v -0.19687h 0.217701v 0.39374h 0.217701v -0.59061h 0.217701v 0.59061h 0.217701v -0.19687h 0.435402v
 -0.19687h 0.653102v 0.39374h 0.217701v -0.39374h 0.217701v 0.19687h 0.435402v -0.19687h 0.217701v 0.39374h 0.217701v -0.39374h 0.653102v 0.19687h 0.217701v -0.39374h 0.217701v 0.59061h 0.217701v -0.39374h 0.217701v 0.19687h 0.435402v 0.19687h
 0.217701v -0.19687h 0.217701v -0.19687h 0.217701v 0.19687h 0.217701v 0.19687h 0.217701v -0.39374h 0.435402v 0.19687h 0.217701v -0.39374h 0.217701v 0.19687h 0.217701v 0.39374h 0.435402v -0.19687h 0.217701v -0.19687h 0.217701v -0.19687h 0.217701v
 0.19687h 0.217701v -0.39374h 0.217701v 0.59061h 0.217701v -0.39374h 0.217701v 0.59061h 0.217701v -0.19687h 0.217701v -0.39374h 0.217701v -0.19687h 0.217701v 0.78748h 0.435402v -0.19687h 0.653102v -0.19687h 0.217701v -0.19687h 0.217701v -0.19687h
 0.217701v 0.39374h 0.217701v 0.39374h 0.217701v -0.39374h 0.217701v 0.39374h 0.217701v -0.19687h 0.217701v -0.19687h 0.217701v 0.19687h 0.217701v -0.19687h 0.217701v -0.39374h 0.217701v 0.78748h 0.217701v -0.19687h 0.435402v -0.19687h 0.217701v
 -0.19687h 0.217701v 0.39374h 0.217701v -0.39374h 0.217701v -0.19687h 0.217701v 0.78748h 0.217701v -0.19687h 0.217701v -0.19687h 0.217701v -0.39374h 0.217701v 0.59061h 0.217701v -0.19687h 0.217701v -0.19687h 0.217701v 0.39374h 0.217701v -0.19687h
 0.217701v 0.19687h 0.217701v -0.19687h 0.653102v -0.19687h 0.217701v 0.19687h 0.217701v -0.59061h 0.217701v 0.39374h 0.217701v -1.18122h 0.217701v 1.37809h 0.217701v -0.19687h 0.217701v 0.39374h 0.217701v -0.39374h 0.217701v 0.59061h 0.217701v
 -0.59061h 0.217701v 0.39374h 0.217701v 0.19687h 0.217701v -0.78748h 0.217701v 0.39374h 0.217701v -0.19687h 0.217701v 0.59061h 0.217701v -0.78748h 0.217701v 0.59061h 0.435402v -0.78748h 0.217701v 0.59061h 0.435402v 0.19687h 0.217701v 0.19687h
 0.217701v -0.78748h 0.435402v 0.59061h 0.217701v -0.19687h 0.217701v -0.19687h 0.217701v 0.19687h 0.217701v -0.39374h 0.217701v -0.19687h 0.435402v 0.59061h 0.435402v -0.78748h 0.217701v 0.59061h 0.653102v 0.39374h 0.217701v -1.18122h 0.217701v
 0.78748h 0.217701v -0.39374h 0.217701v 0.59061h 0.217701v -0.59061h 0.217701v -0.98435h 0.217701v 1.37809h 0.217701v 0.59061h 0.217701v -1.37809h 0.217701v 1.18122h 0.217701v -1.18122h 0.435402v 0.78748h 0.217701v -0.19687h 0.217701v -0.39374h
 0.435402v 0.59061h 0.435402v -0.78748h 0.217701v 0.39374h 0.217701v 0.39374h 0.217701v -0.59061h 0.435402v 0.19687h 0.217701v 0.39374h 0.217701v -0.19687h 0.217701v 0.19687h 0.217701v -1.77183h 0.217701v 0.39374h 0.217701v 0.78748h 0.217701v
 0.19687h 0.217701v -1.18122h 0.217701v 0.78748h 0.435402v -0.39374h 0.217701v -1.37809h 0.217701v 2.36244h 0.217701v -0.78748h 0.435402v 0.19687h 0.217701v 0.78748h 0.217701v -1.77183h 0.435402v 0.19687h 0.217701v 0.78748h 0.217701v -0.98435h
 0.217701v -1.18122h 0.217701v -1.77183h 0.217701v 2.75618h 0.217701v 1.37809h 0.217701v -3.34679h 0.217701v 0.78748h 0.435402v -0.39374h 0.217701v -0.39374h 0.217701v 1.57496h 0.217701v -2.95305h 0.217701v 0.19687h 0.217701v -0.59061h 0.217701v
 -1.77183h 0.217701v -0.98435h 0.217701v -3.34679h 0.217701v -2.36244h 0.217701v -0.39374h 0.217701v -4.52801h 0.217701v -2.16557h 0.217701v -12.9934h 0.217701v -3.74053h 0.217701v -10.4341h 0.217701v -16.1433h 0.217701v -2.55931h 0.217701v -14.1746h
 0.217701v -14.5684h 0.217701v -15.159h 0.217701v -10.2372h 0.217701v -12.2059h 0.217701v -15.9465h 0.217701v -9.05602h 0.217701v -20.0807h 0.217701v 1.77183h 0.217701v -2.75618h 0.217701v 9.05602h 0.217701v -11.6153h 0.217701v 11.4185h 0.217701v
 12.9934h 0.217701v 29.3336h 0.217701v -7.08732h 0.217701v 25.3962h 0.217701v 7.8748h 0.217701v 11.8122h 0.217701v 23.6244h 0.217701v 8.07167h 0.217701v 5.31549h 0.217701v 13.9778h 0.217701v 1.57496h 0.217701v 6.69358h 0.217701v 12.2059h 0.217701v
 0.98435h 0.217701v 6.10297h 0.217701v 2.55931h 0.217701v 1.37809h 0.217701v 1.57496h 0.217701v -2.16557h 0.217701v 3.14992h 0.217701v 0.59061h 0.217701v -0.59061h 0.217701v 1.77183h 0.217701v -1.18122h 0.217701v 2.16557h 0.217701v 0.59061h 0.217701v
 -0.39374h 0.217701v 0.19687h 0.217701v 0.98435h 0.217701v -1.18122h 0.217701v 0.59061h 0.217701v 0.98435h 0.217701v -0.39374h 0.217701v -1.37809h 0.217701v 0.19687h 0.217701v 0.78748h 0.217701v -0.78748h 0.217701v 1.37809h 0.435402v -0.19687h
 0.217701v 0.19687h 0.217701v 0.59061h 0.217701v -0.19687h 0.435402v -0.78748h 0.435402v -0.98435h 0.217701v 2.16557h 0.435402v -1.18122h 0.217701v 0.78748h 0.217701v -0.59061h 0.217701v 0.39374h 0.217701v 0.39374h 0.217701v -0.39374h 0.217701v
 0.39374h 0.217701v 0.19687h 0.217701v -0.19687h 0.217701v 0.59061h 0.217701v -0.59061h 0.217701v -0.98435h 0.217701v 1.57496h 0.217701v -0.39374h 0.217701v -0.19687h 0.217701v 0.39374h 0.653102v -0.98435h 0.217701v 1.18122h 0.217701v -0.39374h
 0.217701v 0.39374h 0.217701v -0.78748h 0.217701v 0.98435h 0.217701v -0.59061h 0.217701v -0.39374h 0.653102v 0.59061h 0.217701v 0.39374h 0.217701v -0.59061h 0.217701v -0.39374h 0.217701v 0.39374h 0.217701v 0.19687h 0.217701v -0.19687h 0.653102v
 0.39374h 0.435402v -0.39374h 0.217701v 0.78748h 0.217701v -0.19687h 0.217701v -0.19687h 0.217701v -0.39374h 0.217701v 0.19687h 0.217701v 0.39374h 0.217701v -0.59061h 0.217701v 0.19687h 0.217701v -0.59061h 0.217701v 0.59061h 0.217701v 0.19687h
 0.217701v 0.19687h 0.217701v -0.19687h 0.435402v 0.19687h 0.217701v -0.39374h 0.217701v -0.19687h 0.217701v 0.19687h 0.653102v 0.59061h 0.217701v -0.19687h 0.217701v -0.39374h 0.217701v 0.39374h 0.217701v -0.19687h 0.435402v 0.39374h 0.217701v
 -0.19687h 0.217701v -0.19687h 0.435402v -0.59061h 0.217701v 0.59061h 0.435402v 0.39374h 0.217701v -0.19687h 0.653102v -0.19687h 0.435402v 0.19687h 0.217701v -0.59061h 0.217701v 0.59061h 0.217701v 0.19687h 0.217701v -0.98435h 0.217701v 0.98435h
 0.217701v -0.19687h 0.217701v -0.19687h 0.217701v -0.19687h 0.217701v 0.59061h 0.217701v -0.19687h 0.435402v -0.39374h 0.217701v 0.19687h 0.217701v 0.19687h 0.217701v 0.19687h 0.217701v -0.19687h 0.435402v -0.19687h 0.217701v 0.39374h 0.435402v
 -0.39374h 0.217701v 0.19687h 0.653102v 0.19687h 0.435402v -0.39374h 0.435402v -0.19687h 0.435402v 0.39374h 1.0885v -0.19687h 0.217701v 0.19687h 0.217701v -0.59061h 0.217701v 0.59061h 0.217701v -0.19687h 0.217701v 0.39374h 0.217701v -0.19687h
 0.435402v 0.19687h 0.435402v -0.19687h 0.217701v 0.19687h 0.435402v -0.39374h 0.217701v 0.39374h 0.217701v -0.19687h 0.217701v -0.39374h 0.217701v 0.59061h 1.0885v -0.19687h 0.217701v 0.19687h 0.217701v -0.39374h 0.217701v 0.39374h 0.435402v
 -0.19687h 0.217701v 0.19687h 0.217701v -0.39374h 0.435402v 0.19687h 0.217701v 0.19687h 1.0885v -0.39374h 0.217701v 0.39374h 0.217701v -0.19687h 0.435402v 0.19687h 0.217701v -0.19687h 0.217701v -0.19687h 0.217701v 0.19687h 0.217701v 0.19687h
 0.217701v -0.19687h 0.435402v -0.39374h 0.217701v 0.59061h 0.217701v -0.19687h 0.217701v 0.19687h 0.217701v -0.19687h 0.217701v 0.19687h 0.653102v -0.39374h 0.217701v 0.39374h 1.0885v -0.59061h 0.217701v 0.59061h 0.653102v -0.19687h 0.435402v
 -0.19687h 0.217701v 0.19687h 0.217701v 0.19687h 0.217701v -0.19687h 0.217701v -0.19687h 0.217701v 0.39374h 0.217701v -0.19687h 1.3062v 0.19687h 0.653102v -0.19687h 0.217701v 0.19687h 0.217701v -0.19687h 0.217701v 0.19687h 0.653102v -0.19687h
 0.217701v -0.19687h 0.217701v 0.19687h 0.217701v 0.19687h 0.217701v -0.19687h 0.217701v 0.19687h 0.870803v -0.19687h 0.435402v 0.19687h 0.435402v -0.19687h 0.435402v -0.19687h 0.217701v 0.39374h 0.435402v -0.19687h 0.217701v 0.19687h 0.870803v
 -0.39374h 0.217701v 0.39374h 0.217701v -0.39374h 0.217701v 0.39374h 0.870803v -0.19687h 0.217701v 0.19687h 1.74161v -0.19687h 0.217701v 0.19687h 0.217701v -0.59061h 0.217701v 0.59061h 0.435402v -0.19687h 0.435402v 0.19687h 0.653102v -0.39374h
 0.217701v 0.39374h 1.52391v -0.19687h 0.217701v 0.19687h 0.435402v -0.19687h 0.217701v 0.19687h 0.870803v -0.19687h 0.217701v 0.19687h 0.435402v -0.19687h 0.217701v 0.19687h 0.435402v -0.19687h 0.217701v 0.19687h 0.653102v -0.19687h 0.217701v
 0.19687h 1.0885v -0.19687h 0.217701v 0.19687h 0.870803v -0.19687h 0.217701v 0.19687h 0.435402v -0.19687h 0.217701v 0.19687h 0.653102v -0.19687h 0.435402v 0.19687h 1.3062v -0.19687h 0.217701v 0.19687h 5.87792v -0.19687h 0.435402v 0.19687h 1.0885v
 -0.19687h 0.217701v 0.19687h 0.435402v -0.19687h 0.653102v 0.19687h 21.9878" fill="none" stroke="#000099" stroke-width="2"/>
<path d="M34.4704,218.256h 100.142l 2.17701, -0.997055l 2.17701, -24.0077l 2.17701, -106.628" fill="none" stroke="#ff0000" stroke-width="2"/>
<path d="M141.144,86.6228l 2.17701, -13.8275l 2.17701, 111.719l 2.17701, 32.0985l 2.17701, 1.64294h 97.9654" fill="none" stroke="#ff0000" stroke-width="2"/>
<path d="M247.817,218.256h 2.17701" fill="none" stroke="#ff0000" stroke-width="2"/>
<path d="M33.3819,218.256h 217.701" fill="none" stroke="black"/>
<path d="M33.3819,212.501v 5.7549" fill="none" stroke="black"/>
<path d="M37.7359,215.378v 2.87745" fill="none" stroke="black"/>
<path d="M42.0899,215.378v 2.87745" fill="none" stroke="black"/>
<path d="M46.4439,215.378v 2.87745" fill="none" stroke="black"/>
<path d="M50.798,215.378v 2.87745" fill="none" stroke="black"/>
<path d="M55.152,212.501v 5.7549" fill="none" stroke="black"/>
<path d="M59.506,215.378v 2.87745" fill="none" stroke="black"/>
<path d="M63.86,215.378v 2.87745" fill="none" stroke="black"/>
<path d="M68.214,215.378v 2.87745" fill="none" stroke="black"/>
<path d="M72.568,215.378v 2.87745" fill="none" stroke="black"/>
<path d="M76.9221,212.501v 5.7549" fill="none" stroke="black"/>
<path d="M81.2761,215.378v 2.87745" fill="none" stroke="black"/>
<path d="M85.6301,215.378v 2.87745" fill="none" stroke="black"/>
<path d="M89.9841,215.378v 2.87745" fill="none" stroke="black"/>
<path d="M94.3381,215.378v 2.87745" fill="none" stroke="black"/>
<path d="M98.6921,212.501v 5.7549" fill="none" stroke="black"/>
<path d="M103.046,215.378v 2.87745" fill="none" stroke="black"/>
<path d="M107.4,215.378v 2.87745" fill="none" stroke="black"/>
<path d="M111.754,215.378v 2.87745" fill="none" stroke="black"/>
<path d="M116.108,215.378v 2.87745" fill="none" stroke="black"/>
<path d="M120.462,212.501v 5.7549" fill="none" stroke="black"/>
<path d="M124.816,215.378v 2.87745" fill="none" stroke="black"/>
<path d="M129.17,215.378v 2.87745" fill="none" stroke="black"/>
<path d="M133.524,215.378v 2.87745" fill="none" stroke="black"/>
<path d="M137.878,215.378v 2.87745" fill="none" stroke="black"/>
<path d="M142.232,212.501v 5.7549" fill="none" stroke="black"/>
<path d="M146.586,215.378v 2.87745" fill="none" stroke="black"/>
<path d="M150.94,215.378v 2.87745" fill="none" stroke="black"/>
<path d="M155.294,215.378v 2.87745" fill="none" stroke="black"/>
<path d="M159.648,215.378v 2.87745" fill="none" stroke="black"/>
<path d="M164.002,212.501v 5.7549" fill="none" stroke="black"/>
<path d="M168.356,215.378v 2.87745" fill="none" stroke="black"/>
<path d="M172.71,215.378v 2.87745" fill="none" stroke="black"/>
<path d="M177.064,215.378v 2.87745" fill="none" stroke="black"/>
<path d="M181.418,215.378v 2.87745" fill="none" stroke="black"/>
<path d="M185.772,212.501v 5.7549" fill="none" stroke="black"/>
<path d="M190.126,215.378v 2.87745" fill="none" stroke="black"/>
<path d="M194.48,215.378v 2.87745" fill="none" stroke="black"/>
<path d="M198.834,215.378v 2.87745" fill="none" stroke="black"/>
<path d="M203.189,215.378v 2.87745" fill="none" stroke="black"/>
<path d="M207.543,212.501v 5.7549" fill="none" stroke="black"/>
<path d="M211.897,215.378v 2.87745" fill="none" stroke="black"/>
<path d="M216.251,215.378v 2.87745" fill="none" stroke="black"/>
<path d="M220.605,215.378v 2.87745" fill="none" stroke="black"/>
<path d="M224.959,215.378v 2.87745" fill="none" stroke="black"/>
<path d="M229.313,212.501v 5.7549" fill="none" stroke="black"/>
<path d="M233.667,215.378v 2.87745" fill="none" stroke="black"/>
<path d="M238.021,215.378v 2.87745" fill="none" stroke="black"/>
<path d="M242.375,215.378v 2.87745" fill="none" stroke="black"/>
<path d="M246.729,215.378v 2.87745" fill="none" stroke="black"/>
<path d="M251.083,212.501v 5.7549" fill="none" stroke="black"/>
<path d="M33.3819,212.501v 5.7549" fill="none" stroke="black"/>
<text xml:space="preserve" x="29.8239" y="226.078" fill="black" font-size="8.1996" font-family="Helvetica">0.5</text>
<text xml:space="preserve" x="25.7249" y="226.078" fill="black" font-size="8.1996" font-family="Times">&#8722;</text>
<text xml:space="preserve" x="51.5804" y="226.078" fill="black" font-size="8.1996" font-family="Helvetica">0.4</text>
<text xml:space="preserve" x="47.4813" y="226.078" fill="black" font-size="8.1996" font-family="Times">&#8722;</text>
<text xml:space="preserve" x="73.3368" y="226.078" fill="black" font-size="8.1996" font-family="Helvetica">0.3</text>
<text xml:space="preserve" x="69.2378" y="226.078" fill="black" font-size="8.1996" font-family="Times">&#8722;</text>
<text xml:space="preserve" x="95.0933" y="226.078" fill="black" font-size="8.1996" font-family="Helvetica">0.2</text>
<text xml:space="preserve" x="90.9942" y="226.078" fill="black" font-size="8.1996" font-family="Times">&#8722;</text>
<text xml:space="preserve" x="117.48" y="226.078" fill="black" font-size="8.1996" font-family="Helvetica">0.1</text>
<text xml:space="preserve" x="113.381" y="226.078" fill="black" font-size="8.1996" font-family="Times">&#8722;</text>
<text xml:space="preserve" x="139.867" y="226.078" fill="black" font-size="8.1996" font-family="Helvetica">0</text>
<text xml:space="preserve" x="159.101" y="226.078" fill="black" font-size="8.1996" font-family="Helvetica">0.1</text>
<text xml:space="preserve" x="180.227" y="226.078" fill="black" font-size="8.1996" font-family="Helvetica">0.2</text>
<text xml:space="preserve" x="201.984" y="226.078" fill="black" font-size="8.1996" font-family="Helvetica">0.3</text>
<text xml:space="preserve" x="223.74" y="226.078" fill="black" font-size="8.1996" font-family="Helvetica">0.4</text>
<text xml:space="preserve" x="245.497" y="226.078" fill="black" font-size="8.1996" font-family="Helvetica">0.5</text>
<text xml:space="preserve" x="213.966" y="234.591" fill="black" font-size="8.1996" font-family="Helvetica">Residual u</text>
<path d="M33.3819,218.256v -191.83" fill="none" stroke="black"/>
<path d="M39.9129,218.256h -6.53102" fill="none" stroke="black"/>
<path d="M36.6474,214.318h -3.26551" fill="none" stroke="black"/>
<path d="M36.6474,210.381h -3.26551" fill="none" stroke="black"/>
<path d="M36.6474,206.444h -3.26551" fill="none" stroke="black"/>
<path d="M36.6474,202.506h -3.26551" fill="none" stroke="black"/>
<path d="M39.9129,198.569h -6.53102" fill="none" stroke="black"/>
<path d="M36.6474,194.631h -3.26551" fill="none" stroke="black"/>
<path d="M36.6474,190.694h -3.26551" fill="none" stroke="black"/>
<path d="M36.6474,186.757h -3.26551" fill="none" stroke="black"/>
<path d="M36.6474,182.819h -3.26551" fill="none" stroke="black"/>
<path d="M39.9129,178.882h -6.53102" fill="none" stroke="black"/>
<path d="M36.6474,174.944h -3.26551" fill="none" stroke="black"/>
<path d="M36.6474,171.007h -3.26551" fill="none" stroke="black"/>
<path d="M36.6474,167.07h -3.26551" fill="none" stroke="black"/>
<path d="M36.6474,163.132h -3.26551" fill="none" stroke="black"/>
<path d="M39.9129,159.195h -6.53102" fill="none" stroke="black"/>
<path d="M36.6474,155.257h -3.26551" fill="none" stroke="black"/>
<path d="M36.6474,151.32h -3.26551" fill="none" stroke="black"/>
<path d="M36.6474,147.383h -3.26551" fill="none" stroke="black"/>
<path d="M36.6474,143.445h -3.26551" fill="none" stroke="black"/>
<path d="M39.9129,139.508h -6.53102" fill="none" stroke="black"/>
<path d="M36.6474,135.57h -3.26551" fill="none" stroke="black"/>
<path d="M36.6474,131.633h -3.26551" fill="none" stroke="black"/>
<path d="M36.6474,127.696h -3.26551" fill="none" stroke="black"/>
<path d="M36.6474,123.758h -3.26551" fill="none" stroke="black"/>
<path d="M39.9129,119.821h -6.53102" fill="none" stroke="black"/>
<path d="M36.6474,115.883h -3.26551" fill="none" stroke="black"/>
<path d="M36.6474,111.946h -3.26551" fill="none" stroke="black"/>
<path d="M36.6474,108.009h -3.26551" fill="none" stroke="black"/>
<path d="M36.6474,104.071h -3.26551" fill="none" stroke="black"/>
<path d="M39.9129,100.134h -6.53102" fill="none" stroke="black"/>
<path d="M36.6474,96.1963h -3.26551" fill="none" stroke="black"/>
<path d="M36.6474,92.2589h -3.26551" fill="none" stroke="black"/>
<path d="M36.6474,88.3215h -3.26551" fill="none" stroke="black"/>
<path d="M36.6474,84.3841h -3.26551" fill="none" stroke="black"/>
<path d="M39.9129,80.4467h -6.53102" fill="none" stroke="black"/>
<path d="M36.6474,76.5093h -3.26551" fill="none" stroke="black"/>
<path d="M36.6474,72.5719h -3.26551" fill="none" stroke="black"/>
<path d="M36.6474,68.6345h -3.26551" fill="none" stroke="black"/>
<path d="M36.6474,64.6971h -3.26551" fill="none" stroke="black"/>
<path d="M39.9129,60.7597h -6.53102" fill="none" stroke="black"/>
<path d="M36.6474,56.8223h -3.26551" fill="none" stroke="black"/>
<path d="M36.6474,52.8849h -3.26551" fill="none" stroke="black"/>
<path d="M36.6474,48.9475h -3.26551" fill="none" stroke="black"/>
<path d="M36.6474,45.0101h -3.26551" fill="none" stroke="black"/>
<path d="M39.9129,41.0727h -6.53102" fill="none" stroke="black"/>
<path d="M39.9129,41.0727h -6.53102" fill="none" stroke="black"/>
<path d="M36.6474,37.1353h -3.26551" fill="none" stroke="black"/>
<path d="M36.6474,33.1979h -3.26551" fill="none" stroke="black"/>
<path d="M36.6474,29.2605h -3.26551" fill="none" stroke="black"/>
<text xml:space="preserve" x="27.6167" y="221.033" fill="black" font-size="8.1996" font-family="Helvetica">0</text>
<text xml:space="preserve" x="18.788" y="201.168" fill="black" font-size="8.1996" font-family="Helvetica">100</text>
<text xml:space="preserve" x="18.788" y="181.619" fill="black" font-size="8.1996" font-family="Helvetica">200</text>
<text xml:space="preserve" x="18.788" y="161.755" fill="black" font-size="8.1996" font-family="Helvetica">300</text>
<text xml:space="preserve" x="18.788" y="142.205" fill="black" font-size="8.1996" font-family="Helvetica">400</text>
<text xml:space="preserve" x="18.788" y="122.656" fill="black" font-size="8.1996" font-family="Helvetica">500</text>
<text xml:space="preserve" x="18.788" y="102.791" fill="black" font-size="8.1996" font-family="Helvetica">600</text>
<text xml:space="preserve" x="18.788" y="83.2421" fill="black" font-size="8.1996" font-family="Helvetica">700</text>
<text xml:space="preserve" x="18.788" y="63.3775" fill="black" font-size="8.1996" font-family="Helvetica">800</text>
<text xml:space="preserve" x="18.788" y="43.8282" fill="black" font-size="8.1996" font-family="Helvetica">900</text>
<g transform="rotate(-90,13.7431,50.4498)">
<text xml:space="preserve" x="13.7431" y="50.4498" fill="black" font-size="8.1996" font-family="Helvetica">Entries</text>
</g>
<text xml:space="preserve" x="89.4177" y="14.189" fill="black" font-size="10.7845" font-family="Helvetica">U Residual Distribution</text>
<rect x="218.428" y="18.033" width="54.4252" height="38.366" fill="white"/>
<path d="M218.428,56.399h 54.4252" fill="none" stroke="black"/>
<path d="M272.853,56.399v -38.366" fill="none" stroke="black"/>
<path d="M272.853,18.033h -54.4252" fill="none" stroke="black"/>
<path d="M218.428,18.033v 38.366" fill="none" stroke="black"/>
<text xml:space="preserve" x="220.902" y="24.9096" fill="black" font-size="7.6227" font-family="Helvetica">residual_u_hist</text>
<path d="M218.428,27.6245h 54.4252" fill="none" stroke="black"/>
<text xml:space="preserve" x="220.902" y="34.0536" fill="black" font-size="5.47497" font-family="Helvetica">Entries </text>
<text xml:space="preserve" x="254.641" y="34.0536" fill="black" font-size="5.47497" font-family="Helvetica"> 18904</text>
<text xml:space="preserve" x="220.902" y="43.8282" fill="black" font-size="5.47497" font-family="Helvetica">Mean  </text>
<text xml:space="preserve" x="246.443" y="43.8282" fill="black" font-size="5.47497" font-family="Helvetica">0.0006132</text>
<text xml:space="preserve" x="243.605" y="43.8282" fill="black" font-size="5.47497" font-family="Times">&#8722;</text>
<text xml:space="preserve" x="242.028" y="43.8282" fill="black" font-size="5.47497" font-family="Helvetica"> </text>
<text xml:space="preserve" x="220.902" y="53.2876" fill="black" font-size="5.47497" font-family="Helvetica">Std Dev   </text>
<text xml:space="preserve" x="250.542" y="53.2876" fill="black" font-size="5.47497" font-family="Helvetica"> 0.03847</text>
<path d="M34.4704,218.256h 100.142l 2.17701, -0.997055l 2.17701, -24.0077l 2.17701, -106.628" fill="none" stroke="#ff0000" stroke-width="2"/>
<path d="M141.144,86.6228l 2.17701, -13.8275l 2.17701, 111.719l 2.17701, 32.0985l 2.17701, 1.64294h 97.9654" fill="none" stroke="#ff0000" stroke-width="2"/>
<path d="M247.817,218.256h 2.17701" fill="none" stroke="#ff0000" stroke-width="2"/>
<rect x="169.445" y="26.4256" width="81.6378" height="47.9575" fill="none" stroke="black"/>
<path d="M169.445,74.3831h 81.6378" fill="none" stroke="black"/>
<path d="M251.083,74.3831v -47.9575" fill="none" stroke="black"/>
<path d="M251.083,26.4256h -81.6378" fill="none" stroke="black"/>
<path d="M169.445,26.4256v 47.9575" fill="none" stroke="black"/>
<text xml:space="preserve" x="175.182" y="42.2517" fill="black" font-size="10.8584" font-family="Helvetica" font-weight="bold">Mean = 0.0006</text>
<text xml:space="preserve" x="172.66" y="64.9541" fill="black" font-size="10.8584" font-family="Helvetica" font-weight="bold">Sigma = 0.0080</text>
<text xml:space="preserve" x="89.4177" y="14.189" fill="black" font-size="10.7845" font-family="Helvetica">U Residual Distribution</text>
<rect x="289.634" y="2.44681" width="272.126" height="239.788" fill="white"/>
<rect x="316.846" y="26.4256" width="217.701" height="191.83" fill="white"/>
<rect x="316.846" y="26.4256" width="217.701" height="191.83" fill="none" stroke="black"/>
<path d="M316.846,218.256h 21.9878v -0.199015h 0.217701v 0.199015h 1.3062v -0.199015h 0.217701v 0.199015h 1.3062v -0.199015h 0.217701v 0.199015h 0.653102v -0.199015h 0.217701v 0.199015h 0.217701v -0.199015h 0.217701v -0.199015h 0.217701v 0.398029h
 0.217701v -0.199015h 0.217701v 0.199015h 0.870803v -0.199015h 0.217701v 0.199015h 0.217701v -0.199015h 0.217701v 0.199015h 0.217701v -0.199015h 0.217701v 0.199015h 0.435402v -0.199015h 0.217701v 0.199015h 0.217701v -0.199015h 0.217701v 0.199015h
 1.74161v -0.199015h 0.653102v 0.199015h 0.870803v -0.199015h 0.217701v 0.199015h 0.653102v -0.398029h 0.217701v 0.398029h 0.653102v -0.199015h 0.217701v 0.199015h 0.217701v -0.199015h 0.217701v 0.199015h 0.435402v -0.199015h 0.435402v 0.199015h
 0.217701v -0.199015h 0.217701v 0.199015h 0.217701v -0.199015h 0.217701v 0.199015h 0.653102v -0.199015h 0.435402v 0.199015h 0.217701v -0.199015h 0.435402v 0.199015h 0.653102v -0.199015h 0.217701v 0.199015h 1.0885v -0.199015h 0.653102v 0.199015h
 1.0885v -0.199015h 0.217701v 0.199015h 1.74161v -0.398029h 0.217701v 0.398029h 0.653102v -0.199015h 0.435402v 0.199015h 0.870803v -0.199015h 0.435402v -0.199015h 0.217701v 0.398029h 0.870803v -0.199015h 0.217701v 0.199015h 0.435402v -0.398029h
 0.435402v 0.199015h 0.217701v -0.199015h 0.217701v 0.398029h 0.435402v -0.199015h 0.653102v 0.199015h 1.52391v -0.398029h 0.217701v 0.398029h 1.0885v -0.199015h 0.217701v 0.199015h 0.435402v -0.199015h 0.217701v 0.199015h 0.435402v -0.199015h
 0.435402v -0.199015h 0.217701v 0.199015h 0.217701v 0.199015h 1.0885v -0.199015h 0.217701v 0.199015h 0.217701v -0.199015h 0.217701v -0.398029h 0.217701v 0.199015h 0.217701v 0.199015h 0.217701v 0.199015h 0.217701v -0.199015h 0.217701v 0.199015h
 0.217701v -0.199015h 0.217701v 0.199015h 0.217701v -0.398029h 0.217701v 0.398029h 1.0885v -0.398029h 0.435402v 0.199015h 0.435402v 0.199015h 2.17701v -0.398029h 0.217701v 0.199015h 0.217701v -0.199015h 0.217701v 0.199015h 0.217701v -0.199015h
 0.217701v 0.199015h 0.217701v 0.199015h 0.217701v -0.398029h 0.217701v 0.199015h 0.217701v 0.199015h 0.217701v -0.199015h 0.217701v 0.199015h 0.217701v -0.796058h 0.217701v 0.398029h 0.217701v 0.398029h 0.435402v -0.398029h 0.217701v 0.398029h
 0.217701v -0.995073h 0.217701v 0.995073h 0.217701v -0.398029h 0.217701v 0.199015h 0.217701v 0.199015h 0.435402v -0.199015h 0.217701v 0.199015h 0.217701v -0.597044h 0.217701v 0.597044h 0.435402v -0.398029h 0.217701v 0.398029h 0.217701v -0.199015h
 0.217701v -0.199015h 0.217701v 0.398029h 0.435402v -0.796058h 0.217701v 0.796058h 0.653102v -0.796058h 0.217701v 0.796058h 0.217701v -0.199015h 0.217701v 0.199015h 0.217701v -0.398029h 0.653102v 0.199015h 0.217701v 0.199015h 0.217701v -0.597044h
 0.217701v 0.398029h 0.217701v -0.199015h 0.217701v 0.199015h 0.217701v 0.199015h 0.217701v -0.199015h 0.217701v 0.199015h 0.435402v -0.199015h 0.217701v -0.199015h 0.435402v -0.199015h 0.217701v 0.597044h 0.217701v -0.597044h 0.217701v 0.199015h
 0.217701v -0.199015h 0.217701v 0.597044h 0.217701v -0.597044h 0.217701v 0.199015h 0.217701v 0.199015h 0.217701v -0.199015h 0.217701v 0.199015h 0.217701v 0.199015h 0.435402v -0.199015h 0.217701v 0.199015h 0.217701v -0.398029h 0.217701v 0.398029h
 0.217701v -0.796058h 0.217701v 0.597044h 0.217701v 0.199015h 0.435402v -0.597044h 0.217701v 0.398029h 0.217701v -0.796058h 0.217701v 0.597044h 0.435402v -0.199015h 0.217701v 0.398029h 0.870803v -0.398029h 0.217701v 0.199015h 0.217701v 0.398029h
 0.653102v -0.398029h 0.217701v 0.199015h 0.435402v -0.597044h 0.217701v 0.597044h 0.435402v -0.597044h 0.217701v -0.199015h 0.217701v 0.796058h 0.217701v -0.398029h 0.217701v 0.199015h 0.217701v -0.199015h 0.217701v 0.597044h 0.217701v -0.199015h
 0.217701v -0.199015h 0.217701v -0.199015h 0.217701v 0.199015h 0.653102v -0.199015h 0.435402v -0.199015h 0.217701v 0.398029h 0.435402v -0.199015h 0.217701v -0.398029h 0.435402v 0.199015h 0.217701v -0.995073h 0.217701v 1.19409h 0.217701v -0.199015h
 0.217701v 0.597044h 0.217701v -0.597044h 0.217701v 0.199015h 0.217701v 0.199015h 0.217701v 0.199015h 0.217701v -0.597044h 0.217701v 0.199015h 0.217701v -0.398029h 0.217701v 0.199015h 0.217701v -0.796058h 0.217701v 1.19409h 0.217701v -0.398029h
 0.217701v -0.796058h 0.435402v 0.796058h 0.217701v -1.19409h 0.217701v 0.398029h 0.217701v -0.796058h 0.217701v 1.79113h 0.217701v -0.796058h 0.217701v -0.398029h 0.217701v 0.796058h 0.217701v 0.199015h 0.217701v -0.398029h 0.217701v -1.19409h
 0.217701v 1.79113h 0.217701v -0.796058h 0.217701v 0.199015h 0.217701v -0.597044h 0.217701v 0.995073h 0.217701v -0.796058h 0.217701v 0.796058h 0.217701v -0.995073h 0.217701v 0.398029h 0.217701v 0.199015h 0.217701v -0.199015h 0.435402v -1.59212h
 0.217701v 2.38817h 0.217701v -1.79113h 0.217701v 0.597044h 0.217701v 0.199015h 0.217701v -1.59212h 0.217701v 1.19409h 0.217701v -0.995073h 0.217701v -1.3931h 0.217701v 1.79113h 0.217701v 0.398029h 0.217701v -2.58719h 0.217701v 2.7862h 0.217701v
 -0.995073h 0.217701v 0.199015h 0.217701v 0.199015h 0.217701v -1.19409h 0.217701v -0.597044h 0.217701v -1.59212h 0.217701v 1.79113h 0.217701v -0.199015h 0.217701v -1.19409h 0.217701v -4.57734h 0.217701v -0.199015h 0.217701v -0.199015h 0.217701v
 -3.98029h 0.217701v -8.95566h 0.217701v -0.796058h 0.217701v -2.98522h 0.217701v -7.36354h 0.217701v -10.9458h 0.217701v -6.56748h 0.217701v -9.15467h 0.217701v -21.4936h 0.217701v -6.7665h 0.217701v -27.464h 0.217701v -3.78128h 0.217701v -15.9212h
 0.217701v -3.78128h 0.217701v -20.8965h 0.217701v 7.96058h 0.217701v -24.4788h 0.217701v -4.77635h 0.217701v 4.77635h 0.217701v 4.57734h 0.217701v 10.9458h 0.217701v 7.56255h 0.217701v 9.5527h 0.217701v 13.931h 0.217701v 11.1448h 0.217701v 3.18423h
 0.217701v 18.3093h 0.217701v 14.5281h 0.217701v 27.066h 0.217701v -0.398029h 0.217701v 5.97044h 0.217701v 9.75171h 0.217701v 9.95073h 0.217701v 5.17438h 0.217701v 0.398029h 0.217701v 6.56748h 0.217701v 4.97536h 0.217701v 1.3931h 0.217701v 4.57734h
 0.217701v 0.398029h 0.217701v 0.597044h 0.217701v -0.597044h 0.217701v 2.38817h 0.217701v 0.398029h 0.217701v 0.796058h 0.217701v -2.18916h 0.217701v 3.58226h 0.217701v -1.3931h 0.217701v 1.19409h 0.217701v 0.398029h 0.217701v -1.3931h 0.217701v
 1.19409h 0.217701v -0.199015h 0.217701v 1.3931h 0.217701v -1.3931h 0.435402v 2.38817h 0.217701v -0.995073h 0.217701v 0.597044h 0.217701v -0.398029h 0.217701v -0.597044h 0.217701v 0.398029h 0.217701v 0.597044h 0.435402v -0.199015h 0.435402v 0.199015h
 0.217701v 0.796058h 0.217701v -1.19409h 0.217701v -0.199015h 0.217701v 0.199015h 0.217701v 0.995073h 0.217701v -0.199015h 0.435402v 0.199015h 0.217701v 0.398029h 0.217701v -1.19409h 0.217701v -0.796058h 0.217701v 1.19409h 0.217701v 0.995073h
 0.217701v -0.796058h 0.217701v -0.199015h 0.217701v 1.19409h 0.217701v -0.199015h 0.217701v -0.995073h 0.217701v 0.398029h 0.217701v 0.199015h 0.217701v -0.796058h 0.217701v 0.398029h 0.217701v 0.597044h 0.217701v -0.199015h 0.217701v 0.398029h
 0.217701v 0.199015h 0.217701v -0.796058h 0.217701v 0.199015h 0.217701v -0.199015h 0.217701v 0.199015h 0.653102v 0.199015h 0.217701v -0.199015h 0.435402v 0.398029h 0.217701v -0.597044h 0.217701v 0.398029h 0.217701v -0.199015h 0.435402v 0.398029h
 0.217701v -0.398029h 0.217701v 0.796058h 0.217701v -0.597044h 0.217701v -0.398029h 0.217701v 0.597044h 0.653102v -0.398029h 0.435402v 0.398029h 0.217701v -0.199015h 0.217701v 0.398029h 0.217701v -0.398029h 0.435402v 0.199015h 0.653102v -0.199015h
 0.435402v 0.199015h 0.217701v -0.398029h 0.217701v -0.199015h 0.217701v 0.199015h 0.217701v 0.199015h 0.217701v 0.398029h 0.217701v -0.199015h 0.870803v 0.199015h 0.653102v 0.199015h 0.217701v -0.995073h 0.217701v 0.398029h 0.217701v 0.398029h
 0.217701v -0.199015h 0.435402v -0.398029h 0.217701v 0.796058h 0.217701v -0.597044h 0.217701v 0.199015h 0.217701v 0.398029h 0.435402v -0.597044h 0.217701v 0.597044h 0.435402v -0.796058h 0.435402v 0.398029h 0.870803v 0.199015h 0.217701v -0.199015h
 0.217701v 0.398029h 0.217701v -0.199015h 0.435402v -0.398029h 0.217701v 0.398029h 0.217701v 0.199015h 0.435402v -0.398029h 0.653102v 0.199015h 0.217701v 0.199015h 0.435402v -0.597044h 0.217701v 0.398029h 0.217701v -0.199015h 0.435402v 0.398029h
 0.217701v -0.199015h 0.217701v -0.199015h 0.217701v -0.199015h 0.217701v 0.597044h 0.217701v -0.398029h 0.217701v 0.398029h 0.435402v -0.398029h 0.217701v 0.398029h 0.217701v -0.597044h 0.217701v 0.597044h 0.217701v -0.398029h 0.217701v -0.199015h
 0.217701v 0.199015h 0.217701v 0.199015h 0.217701v 0.199015h 0.217701v -0.796058h 0.217701v 0.796058h 0.653102v -0.199015h 0.653102v 0.199015h 0.653102v -0.398029h 0.217701v 0.398029h 0.217701v -0.199015h 0.217701v 0.199015h 0.217701v -0.199015h
 0.217701v -0.199015h 0.217701v 0.398029h 0.435402v -0.199015h 0.217701v -0.199015h 0.217701v 0.398029h 0.217701v -0.199015h 0.217701v 0.199015h 0.217701v -0.398029h 0.217701v 0.199015h 0.217701v 0.199015h 0.217701v -0.597044h 0.217701v 0.398029h
 0.435402v -0.199015h 0.217701v 0.199015h 0.217701v -0.199015h 0.217701v 0.199015h 0.217701v 0.199015h 0.217701v -0.199015h 0.435402v 0.199015h 0.217701v -0.199015h 0.217701v -0.199015h 0.217701v 0.398029h 0.653102v -0.398029h 0.217701v 0.199015h
 0.217701v 0.199015h 1.0885v -0.199015h 0.435402v -0.398029h 0.217701v 0.597044h 0.217701v -0.398029h 0.435402v 0.398029h 0.653102v -0.199015h 0.217701v 0.199015h 1.0885v -0.199015h 0.435402v 0.199015h 0.653102v -0.398029h 0.217701v 0.398029h
 0.435402v -0.796058h 0.217701v 0.597044h 0.435402v 0.199015h 0.435402v -0.199015h 0.217701v 0.199015h 1.3062v -0.199015h 0.217701v 0.199015h 0.435402v -0.199015h 0.217701v 0.199015h 0.217701v -0.398029h 0.217701v 0.199015h 0.435402v 0.199015h
 0.435402v -0.199015h 0.435402v -0.398029h 0.217701v 0.597044h 0.870803v -0.398029h 0.217701v 0.199015h 0.217701v 0.199015h 1.3062v -0.199015h 0.435402v 0.199015h 0.217701v -0.199015h 0.217701v 0.199015h 0.653102v -0.199015h 0.870803v 0.199015h
 0.435402v -0.199015h 0.435402v 0.199015h 0.217701v -0.199015h 0.435402v 0.199015h 0.435402v -0.199015h 0.217701v 0.199015h 0.435402v -0.199015h 0.435402v 0.199015h 0.217701v -0.199015h 0.217701v 0.199015h 0.653102v -0.199015h 0.217701v 0.199015h
 0.870803v -0.199015h 0.435402v -0.398029h 0.217701v 0.398029h 0.217701v 0.199015h 0.217701v -0.199015h 0.217701v 0.199015h 0.653102v -0.398029h 0.217701v 0.398029h 0.653102v -0.199015h 0.217701v 0.199015h 0.217701v -0.398029h 0.217701v 0.398029h
 0.217701v -0.398029h 0.217701v 0.398029h 0.653102v -0.398029h 0.217701v 0.398029h 0.217701v -0.199015h 0.217701v 0.199015h 0.217701v -0.199015h 0.217701v 0.199015h 0.217701v -0.199015h 0.217701v 0.199015h 1.0885v -0.199015h 0.435402v 0.199015h
 0.870803v -0.398029h 0.217701v 0.199015h 0.435402v 0.199015h 0.217701v -0.199015h 0.217701v 0.199015h 0.653102v -0.199015h 0.217701v 0.199015h 2.17701v -0.199015h 0.217701v 0.199015h 25.471" fill="none" stroke="#cc0000" stroke-width="2"/>
<path d="M317.935,218.256h 100.142l 2.17701, -1.02301l 2.17701, -22.6285l 2.17701, -100.891" fill="none" stroke="#ff0000" stroke-width="2"/>
<path d="M424.608,93.7136l 2.17701, -24.8242l 2.17701, 108.566l 2.17701, 38.2623l 2.17701, 2.50245l 2.17701, 0.0359697h 95.7883" fill="none" stroke="#ff0000" stroke-width="2"/>
<path d="M531.282,218.256h 2.17701" fill="none" stroke="#ff0000" stroke-width="2"/>
<path d="M316.846,218.256h 217.701" fill="none" stroke="black"/>
<path d="M316.846,212.501v 5.7549" fill="none" stroke="black"/>
<path d="M321.2,215.378v 2.87745" fill="none" stroke="black"/>
<path d="M325.555,215.378v 2.87745" fill="none" stroke="black"/>
<path d="M329.909,215.378v 2.87745" fill="none" stroke="black"/>
<path d="M334.263,215.378v 2.87745" fill="none" stroke="black"/>
<path d="M338.617,212.501v 5.7549" fill="none" stroke="black"/>
<path d="M342.971,215.378v 2.87745" fill="none" stroke="black"/>
<path d="M347.325,215.378v 2.87745" fill="none" stroke="black"/>
<path d="M351.679,215.378v 2.87745" fill="none" stroke="black"/>
<path d="M356.033,215.378v 2.87745" fill="none" stroke="black"/>
<path d="M360.387,212.501v 5.7549" fill="none" stroke="black"/>
<path d="M364.741,215.378v 2.87745" fill="none" stroke="black"/>
<path d="M369.095,215.378v 2.87745" fill="none" stroke="black"/>
<path d="M373.449,215.378v 2.87745" fill="none" stroke="black"/>
<path d="M377.803,215.378v 2.87745" fill="none" stroke="black"/>
<path d="M382.157,212.501v 5.7549" fill="none" stroke="black"/>
<path d="M386.511,215.378v 2.87745" fill="none" stroke="black"/>
<path d="M390.865,215.378v 2.87745" fill="none" stroke="black"/>
<path d="M395.219,215.378v 2.87745" fill="none" stroke="black"/>
<path d="M399.573,215.378v 2.87745" fill="none" stroke="black"/>
<path d="M403.927,212.501v 5.7549" fill="none" stroke="black"/>
<path d="M408.281,215.378v 2.87745" fill="none" stroke="black"/>
<path d="M412.635,215.378v 2.87745" fill="none" stroke="black"/>
<path d="M416.989,215.378v 2.87745" fill="none" stroke="black"/>
<path d="M421.343,215.378v 2.87745" fill="none" stroke="black"/>
<path d="M425.697,212.501v 5.7549" fill="none" stroke="black"/>
<path d="M430.051,215.378v 2.87745" fill="none" stroke="black"/>
<path d="M434.405,215.378v 2.87745" fill="none" stroke="black"/>
<path d="M438.759,215.378v 2.87745" fill="none" stroke="black"/>
<path d="M443.113,215.378v 2.87745" fill="none" stroke="black"/>
<path d="M447.467,212.501v 5.7549" fill="none" stroke="black"/>
<path d="M451.821,215.378v 2.87745" fill="none" stroke="black"/>
<path d="M456.175,215.378v 2.87745" fill="none" stroke="black"/>
<path d="M460.529,215.378v 2.87745" fill="none" stroke="black"/>
<path d="M464.883,215.378v 2.87745" fill="none" stroke="black"/>
<path d="M469.237,212.501v 5.7549" fill="none" stroke="black"/>
<path d="M473.591,215.378v 2.87745" fill="none" stroke="black"/>
<path d="M477.945,215.378v 2.87745" fill="none" stroke="black"/>
<path d="M482.299,215.378v 2.87745" fill="none" stroke="black"/>
<path d="M486.653,215.378v 2.87745" fill="none" stroke="black"/>
<path d="M491.007,212.501v 5.7549" fill="none" stroke="black"/>
<path d="M495.361,215.378v 2.87745" fill="none" stroke="black"/>
<path d="M499.715,215.378v 2.87745" fill="none" stroke="black"/>
<path d="M504.069,215.378v 2.87745" fill="none" stroke="black"/>
<path d="M508.423,215.378v 2.87745" fill="none" stroke="black"/>
<path d="M512.777,212.501v 5.7549" fill="none" stroke="black"/>
<path d="M517.131,215.378v 2.87745" fill="none" stroke="black"/>
<path d="M521.485,215.378v 2.87745" fill="none" stroke="black"/>
<path d="M525.839,215.378v 2.87745" fill="none" stroke="black"/>
<path d="M530.193,215.378v 2.87745" fill="none" stroke="black"/>
<path d="M534.547,212.501v 5.7549" fill="none" stroke="black"/>
<path d="M316.846,212.501v 5.7549" fill="none" stroke="black"/>
<text xml:space="preserve" x="313.288" y="226.078" fill="black" font-size="8.1996" font-family="Helvetica">0.5</text>
<text xml:space="preserve" x="309.189" y="226.078" fill="black" font-size="8.1996" font-family="Times">&#8722;</text>
<text xml:space="preserve" x="335.045" y="226.078" fill="black" font-size="8.1996" font-family="Helvetica">0.4</text>
<text xml:space="preserve" x="330.946" y="226.078" fill="black" font-size="8.1996" font-family="Times">&#8722;</text>
<text xml:space="preserve" x="356.801" y="226.078" fill="black" font-size="8.1996" font-family="Helvetica">0.3</text>
<text xml:space="preserve" x="352.702" y="226.078" fill="black" font-size="8.1996" font-family="Times">&#8722;</text>
<text xml:space="preserve" x="378.558" y="226.078" fill="black" font-size="8.1996" font-family="Helvetica">0.2</text>
<text xml:space="preserve" x="374.459" y="226.078" fill="black" font-size="8.1996" font-family="Times">&#8722;</text>
<text xml:space="preserve" x="400.945" y="226.078" fill="black" font-size="8.1996" font-family="Helvetica">0.1</text>
<text xml:space="preserve" x="396.846" y="226.078" fill="black" font-size="8.1996" font-family="Times">&#8722;</text>
<text xml:space="preserve" x="423.332" y="226.078" fill="black" font-size="8.1996" font-family="Helvetica">0</text>
<text xml:space="preserve" x="442.566" y="226.078" fill="black" font-size="8.1996" font-family="Helvetica">0.1</text>
<text xml:space="preserve" x="463.692" y="226.078" fill="black" font-size="8.1996" font-family="Helvetica">0.2</text>
<text xml:space="preserve" x="485.448" y="226.078" fill="black" font-size="8.1996" font-family="Helvetica">0.3</text>
<text xml:space="preserve" x="507.205" y="226.078" fill="black" font-size="8.1996" font-family="Helvetica">0.4</text>
<text xml:space="preserve" x="528.961" y="226.078" fill="black" font-size="8.1996" font-family="Helvetica">0.5</text>
<text xml:space="preserve" x="497.43" y="234.591" fill="black" font-size="8.1996" font-family="Helvetica">Residual v</text>
<path d="M316.846,218.256v -191.83" fill="none" stroke="black"/>
<path d="M323.377,218.256h -6.53102" fill="none" stroke="black"/>
<path d="M320.112,214.275h -3.26551" fill="none" stroke="black"/>
<path d="M320.112,210.295h -3.26551" fill="none" stroke="black"/>
<path d="M320.112,206.315h -3.26551" fill="none" stroke="black"/>
<path d="M320.112,202.335h -3.26551" fill="none" stroke="black"/>
<path d="M323.377,198.354h -6.53102" fill="none" stroke="black"/>
<path d="M320.112,194.374h -3.26551" fill="none" stroke="black"/>
<path d="M320.112,190.394h -3.26551" fill="none" stroke="black"/>
<path d="M320.112,186.413h -3.26551" fill="none" stroke="black"/>
<path d="M320.112,182.433h -3.26551" fill="none" stroke="black"/>
<path d="M323.377,178.453h -6.53102" fill="none" stroke="black"/>
<path d="M320.112,174.473h -3.26551" fill="none" stroke="black"/>
<path d="M320.112,170.492h -3.26551" fill="none" stroke="black"/>
<path d="M320.112,166.512h -3.26551" fill="none" stroke="black"/>
<path d="M320.112,162.532h -3.26551" fill="none" stroke="black"/>
<path d="M323.377,158.551h -6.53102" fill="none" stroke="black"/>
<path d="M320.112,154.571h -3.26551" fill="none" stroke="black"/>
<path d="M320.112,150.591h -3.26551" fill="none" stroke="black"/>
<path d="M320.112,146.61h -3.26551" fill="none" stroke="black"/>
<path d="M320.112,142.63h -3.26551" fill="none" stroke="black"/>
<path d="M323.377,138.65h -6.53102" fill="none" stroke="black"/>
<path d="M320.112,134.67h -3.26551" fill="none" stroke="black"/>
<path d="M320.112,130.689h -3.26551" fill="none" stroke="black"/>
<path d="M320.112,126.709h -3.26551" fill="none" stroke="black"/>
<path d="M320.112,122.729h -3.26551" fill="none" stroke="black"/>
<path d="M323.377,118.748h -6.53102" fill="none" stroke="black"/>
<path d="M320.112,114.768h -3.26551" fill="none" stroke="black"/>
<path d="M320.112,110.788h -3.26551" fill="none" stroke="black"/>
<path d="M320.112,106.808h -3.26551" fill="none" stroke="black"/>
<path d="M320.112,102.827h -3.26551" fill="none" stroke="black"/>
<path d="M323.377,98.847h -6.53102" fill="none" stroke="black"/>
<path d="M320.112,94.8667h -3.26551" fill="none" stroke="black"/>
<path d="M320.112,90.8864h -3.26551" fill="none" stroke="black"/>
<path d="M320.112,86.9061h -3.26551" fill="none" stroke="black"/>
<path d="M320.112,82.9258h -3.26551" fill="none" stroke="black"/>
<path d="M323.377,78.9455h -6.53102" fill="none" stroke="black"/>
<path d="M320.112,74.9652h -3.26551" fill="none" stroke="black"/>
<path d="M320.112,70.9849h -3.26551" fill="none" stroke="black"/>
<path d="M320.112,67.0047h -3.26551" fill="none" stroke="black"/>
<path d="M320.112,63.0244h -3.26551" fill="none" stroke="black"/>
<path d="M323.377,59.0441h -6.53102" fill="none" stroke="black"/>
<path d="M320.112,55.0638h -3.26551" fill="none" stroke="black"/>
<path d="M320.112,51.0835h -3.26551" fill="none" stroke="black"/>
<path d="M320.112,47.1032h -3.26551" fill="none" stroke="black"/>
<path d="M320.112,43.1229h -3.26551" fill="none" stroke="black"/>
<path d="M323.377,39.1426h -6.53102" fill="none" stroke="black"/>
<path d="M323.377,39.1426h -6.53102" fill="none" stroke="black"/>
<path d="M320.112,35.1623h -3.26551" fill="none" stroke="black"/>
<path d="M320.112,31.182h -3.26551" fill="none" stroke="black"/>
<path d="M320.112,27.2017h -3.26551" fill="none" stroke="black"/>
<text xml:space="preserve" x="311.081" y="221.033" fill="black" font-size="8.1996" font-family="Helvetica">0</text>
<text xml:space="preserve" x="302.253" y="201.168" fill="black" font-size="8.1996" font-family="Helvetica">100</text>
<text xml:space="preserve" x="302.253" y="180.988" fill="black" font-size="8.1996" font-family="Helvetica">200</text>
<text xml:space="preserve" x="302.253" y="161.124" fill="black" font-size="8.1996" font-family="Helvetica">300</text>
<text xml:space="preserve" x="302.253" y="141.259" fill="black" font-size="8.1996" font-family="Helvetica">400</text>
<text xml:space="preserve" x="302.253" y="121.395" fill="black" font-size="8.1996" font-family="Helvetica">500</text>
<text xml:space="preserve" x="302.253" y="101.53" fill="black" font-size="8.1996" font-family="Helvetica">600</text>
<text xml:space="preserve" x="302.253" y="81.6655" fill="black" font-size="8.1996" font-family="Helvetica">700</text>
<text xml:space="preserve" x="302.253" y="61.8009" fill="black" font-size="8.1996" font-family="Helvetica">800</text>
<text xml:space="preserve" x="302.253" y="41.9364" fill="black" font-size="8.1996" font-family="Helvetica">900</text>
<g transform="rotate(-90,297.523,50.4498)">
<text xml:space="preserve" x="297.523" y="50.4498" fill="black" font-size="8.1996" font-family="Helvetica">Entries</text>
</g>
<text xml:space="preserve" x="373.198" y="14.189" fill="black" font-size="10.7845" font-family="Helvetica">V Residual Distribution</text>
<rect x="501.892" y="18.033" width="54.4252" height="38.366" fill="white"/>
<path d="M501.892,56.399h 54.4252" fill="none" stroke="black"/>
<path d="M556.317,56.399v -38.366" fill="none" stroke="black"/>
<path d="M556.317,18.033h -54.4252" fill="none" stroke="black"/>
<path d="M501.892,18.033v 38.366" fill="none" stroke="black"/>
<text xml:space="preserve" x="504.682" y="24.9096" fill="black" font-size="7.69757" font-family="Helvetica">residual_v_hist</text>
<path d="M501.892,27.6245h 54.4252" fill="none" stroke="black"/>
<text xml:space="preserve" x="504.367" y="34.3689" fill="black" font-size="5.92857" font-family="Helvetica">Entries </text>
<text xml:space="preserve" x="536.213" y="34.3689" fill="black" font-size="5.92857" font-family="Helvetica"> 18904</text>
<text xml:space="preserve" x="504.367" y="44.1435" fill="black" font-size="5.92857" font-family="Helvetica">Mean  </text>
<text xml:space="preserve" x="528.331" y="44.1435" fill="black" font-size="5.92857" font-family="Helvetica"> 0.001605</text>
<text xml:space="preserve" x="504.367" y="53.6029" fill="black" font-size="5.92857" font-family="Helvetica">Std Dev   </text>
<text xml:space="preserve" x="532.43" y="53.6029" fill="black" font-size="5.92857" font-family="Helvetica"> 0.03701</text>
<path d="M317.935,218.256h 100.142l 2.17701, -1.02301l 2.17701, -22.6285l 2.17701, -100.891" fill="none" stroke="#0000ff" stroke-width="2"/>
<path d="M424.608,93.7136l 2.17701, -24.8242l 2.17701, 108.566l 2.17701, 38.2623l 2.17701, 2.50245l 2.17701, 0.0359697h 95.7883" fill="none" stroke="#0000ff" stroke-width="2"/>
<path d="M531.282,218.256h 2.17701" fill="none" stroke="#0000ff" stroke-width="2"/>
<rect x="452.909" y="26.4256" width="81.6378" height="47.9575" fill="none" stroke="black"/>
<path d="M452.909,74.3831h 81.6378" fill="none" stroke="black"/>
<path d="M534.547,74.3831v -47.9575" fill="none" stroke="black"/>
<path d="M534.547,26.4256h -81.6378" fill="none" stroke="black"/>
<path d="M452.909,26.4256v 47.9575" fill="none" stroke="black"/>
<text xml:space="preserve" x="458.647" y="42.2517" fill="black" font-size="10.8584" font-family="Helvetica" font-weight="bold">Mean = 0.0012</text>
<text xml:space="preserve" x="456.124" y="64.9541" fill="black" font-size="10.8584" font-family="Helvetica" font-weight="bold">Sigma = 0.0082</text>
<text xml:space="preserve" x="373.198" y="14.189" fill="black" font-size="10.7845" font-family="Helvetica">V Residual Distribution</text></svg>
